<svg xmlns="http://www.w3.org/2000/svg" viewBox="0 0 24 24" fill="#059669">
    <path d="M17.61,3.47A8.75,8.75,0,0,0,12,2a8.75,8.75,0,0,0-5.61,1.47,8.75,8.75,0,0,0-3.32,12.46l.16.27.17.27,1.6,2.57.17.26.16.25a8.74,8.74,0,0,0,13.34,0l.16-.25.17-.26,1.6-2.57.17-.27.16-.27A8.75,8.75,0,0,0,17.61,3.47ZM12,20.42a6.76,6.76,0,0,1-5.18-2.3l-.15-.24-.15-.24L5,15.07l-.15-.24-.14-.24a6.75,6.75,0,0,1,2.56-9.58,6.75,6.75,0,0,1,9.56,0,6.75,6.75,0,0,1,2.56,9.58l-.14.24-.15.24L19,15.07l-.15.24-.15.24A6.76,6.76,0,0,1,12,20.42Z" />
    <path d="M12,4.11a6.83,6.83,0,0,0-4,1.62,6.7,6.7,0,0,0,4,11.62,6.7,6.7,0,0,0,4-11.62A6.83,6.83,0,0,0,12,4.11Z" />
</svg>
